<?xml version="1.0" encoding="UTF-8"?>
<svg version="1.1" xmlns="http://www.w3.org/2000/svg" width="95" height="60">
<path d="M0 0 C31.35 0 62.7 0 95 0 C95 19.8 95 39.6 95 60 C63.65 60 32.3 60 0 60 C0 40.2 0 20.4 0 0 Z " fill="#914048" transform="translate(0,0)"/>
<path d="M0 0 C31.35 0 62.7 0 95 0 C95 6.27 95 12.54 95 19 C92.69 19.33 90.38 19.66 88 20 C87.67 21.32 87.34 22.64 87 24 C86.34 24 85.68 24 85 24 C85 22.35 85 20.7 85 19 C84.33613281 19.15597656 83.67226562 19.31195312 82.98828125 19.47265625 C82.10527344 19.66730469 81.22226563 19.86195312 80.3125 20.0625 C79.00732422 20.35833984 79.00732422 20.35833984 77.67578125 20.66015625 C74.83497847 21.02095894 72.7748606 20.60035315 70 20 C69.34 20.33 68.68 20.66 68 21 C68 20.34 68 19.68 68 19 C66.35 19.33 64.7 19.66 63 20 C62.505 21.485 62.505 21.485 62 23 C61.505 21.515 61.505 21.515 61 20 C60.34 20 59.68 20 59 20 C58.67 20.66 58.34 21.32 58 22 C58 21.34 58 20.68 58 20 C54.37 19.67 50.74 19.34 47 19 C46.67 19.66 46.34 20.32 46 21 C45.01 20.67 44.02 20.34 43 20 C43 20.99 43 21.98 43 23 C42.34 23 41.68 23 41 23 C40.505 21.515 40.505 21.515 40 20 C35.86425173 19.9015298 32.06368679 20.22596442 28 21 C28.61875 21.12375 29.2375 21.2475 29.875 21.375 C32 22 32 22 34 24 C30.91440696 26.26881841 29.57790624 27.05451946 25.6875 26.6875 C24.800625 26.460625 23.91375 26.23375 23 26 C22.06934867 23.39417629 21.85082593 22.35801776 22.9375 19.75 C23.4634375 18.88375 23.4634375 18.88375 24 18 C22.55802132 19.44197868 21.88213756 21.17691571 21 23 C17.625 23.125 17.625 23.125 14 23 C13.34 22.34 12.68 21.68 12 21 C11.34 21.99 10.68 22.98 10 24 C7.375 24.1875 7.375 24.1875 5 24 C5 24.33 5 24.66 5 25 C4.360625 25.12375 3.72125 25.2475 3.0625 25.375 C2.381875 25.58125 1.70125 25.7875 1 26 C0.67 26.66 0.34 27.32 0 28 C0 18.76 0 9.52 0 0 Z " fill="#29191F" transform="translate(0,0)"/>
<path d="M0 0 C0 9.9 0 19.8 0 30 C-31.35 30 -62.7 30 -95 30 C-95 24.06 -95 18.12 -95 12 C-86.71764706 13.03529412 -86.71764706 13.03529412 -84 16 C-80.89160979 16.7269226 -80.89160979 16.7269226 -78 17 C-78 20 -78 20 -80 23 C-76.75150023 21.27773504 -76.75150023 21.27773504 -76 18 C-75.34 18 -74.68 18 -74 18 C-74.33 17.01 -74.66 16.02 -75 15 C-74.195625 15.165 -73.39125 15.33 -72.5625 15.5 C-70.2715557 16.03191839 -70.2715557 16.03191839 -69 16 C-69 14.68 -69 13.36 -69 12 C-67.97326172 12.21462891 -67.97326172 12.21462891 -66.92578125 12.43359375 C-63.68946264 13.06011738 -60.44664081 13.56869079 -57.1875 14.0625 C-56.02605469 14.23910156 -54.86460938 14.41570313 -53.66796875 14.59765625 C-52.78753906 14.73042969 -51.90710937 14.86320312 -51 15 C-51 14.67 -51 14.34 -51 14 C-48.66666667 14 -46.33333333 14 -44 14 C-42.741875 13.67 -41.48375 13.34 -40.1875 13 C-32.65422822 11.09284259 -32.65422822 11.09284259 -29.0625 13.0625 C-26.02724736 14.44216029 -24.15500078 13.92020856 -21 13 C-17.99326551 10.64337027 -16.47642497 8.81139978 -16 5 C-16 3.68 -16 2.36 -16 1 C-14.35 1 -12.7 1 -11 1 C-11 5.29 -11 9.58 -11 14 C-9.35 14 -7.7 14 -6 14 C-6 9.71 -6 5.42 -6 1 C-1 0 -1 0 0 0 Z " fill="#221A21" transform="translate(95,30)"/>
<path d="M0 0 C3.51891132 0.06406341 5.65087486 0.27168377 8.9375 1.625 C11.43590614 5.32953325 11.31045247 8.36596949 11.31640625 12.75390625 C10.75 15.3125 10.75 15.3125 8.96484375 17.15234375 C6.75 18.3125 6.75 18.3125 2.75 18.3125 C2.42 18.9725 2.09 19.6325 1.75 20.3125 C1.1725 20.126875 0.595 19.94125 0 19.75 C-2.18880184 19.14852287 -2.18880184 19.14852287 -4.05078125 19.82421875 C-8.48997558 20.80983028 -12.95917695 19.58197427 -17.25 18.3125 C-20.34451329 16.24949114 -21.87470701 15.02861249 -22.6796875 11.34765625 C-22.89267275 7.98374214 -22.61225615 5.80352018 -20.6015625 3.078125 C-17.55378462 0.78976022 -15.82513015 0.92793167 -12.0625 1.125 C-10.12592942 1.21164221 -8.18823943 1.28024488 -6.25 1.3125 C-4.53310511 -0.40439489 -2.34121863 0.05946946 0 0 Z " fill="#AD353D" transform="translate(48.25,25.6875)"/>
<path d="M0 0 C1.28825684 0.01047363 2.57651367 0.02094727 3.90380859 0.03173828 C4.93167984 0.03598312 4.93167984 0.03598312 5.98031616 0.04031372 C8.17113636 0.05151797 10.36154925 0.07662219 12.55224609 0.10205078 C14.03661519 0.1120803 15.5209907 0.1212062 17.00537109 0.12939453 C20.64627965 0.14975755 24.28630641 0.18890357 27.92724609 0.22705078 C27.92724609 5.83705078 27.92724609 11.44705078 27.92724609 17.22705078 C21.32724609 17.22705078 14.72724609 17.22705078 7.92724609 17.22705078 C11.92724609 12.22705078 11.92724609 12.22705078 14.50537109 11.73876953 C15.82794922 11.82578125 15.82794922 11.82578125 17.17724609 11.91455078 C18.51529297 11.98222656 18.51529297 11.98222656 19.88037109 12.05126953 C20.55583984 12.10927734 21.23130859 12.16728516 21.92724609 12.22705078 C21.92724609 11.56705078 21.92724609 10.90705078 21.92724609 10.22705078 C14.9636696 10.19927289 14.9636696 10.19927289 9.36474609 13.78955078 C6.60054081 16.55375606 6.03137234 16.60469322 2.30224609 16.66455078 C-1.15548692 16.56424112 -2.05067996 16.24176675 -5.07275391 14.22705078 C-5.43603516 11.47705078 -5.43603516 11.47705078 -5.38525391 8.22705078 C-5.38138672 7.15455078 -5.37751953 6.08205078 -5.37353516 4.97705078 C-4.93381464 0.95674888 -4.00227882 0.29573489 0 0 Z " fill="#131218" transform="translate(67.07275390625,-0.22705078125)"/>
<path d="M0 0 C4.24119766 0.56015818 8.10012095 0.04595475 12.3125 -0.5625 C12.3125 1.0875 12.3125 2.7375 12.3125 4.4375 C12.9725 4.4375 13.6325 4.4375 14.3125 4.4375 C14.6425 2.7875 14.9725 1.1375 15.3125 -0.5625 C17.6225 -0.5625 19.9325 -0.5625 22.3125 -0.5625 C22.33937279 1.24992052 22.35883715 3.06245233 22.375 4.875 C22.38660156 5.88433594 22.39820313 6.89367187 22.41015625 7.93359375 C22.3125 10.4375 22.3125 10.4375 21.3125 11.4375 C19.6625 11.4375 18.0125 11.4375 16.3125 11.4375 C16.3125 15.7275 16.3125 20.0175 16.3125 24.4375 C14.6625 24.4375 13.0125 24.4375 11.3125 24.4375 C11.3125 20.1475 11.3125 15.8575 11.3125 11.4375 C9.6625 11.4375 8.0125 11.4375 6.3125 11.4375 C6.51875 12.38625 6.725 13.335 6.9375 14.3125 C7.06125 15.34375 7.185 16.375 7.3125 17.4375 C6.6525 18.0975 5.9925 18.7575 5.3125 19.4375 C5.3125 18.7775 5.3125 18.1175 5.3125 17.4375 C4.013125 18.4584375 4.013125 18.4584375 2.6875 19.5 C-0.6875 21.4375 -0.6875 21.4375 -3.8125 21.3125 C-6.30212357 20.55478848 -8.43870962 19.73487907 -10.6875 18.4375 C-11.0175 19.0975 -11.3475 19.7575 -11.6875 20.4375 C-12.6875 19.4375 -12.6875 19.4375 -12.75 15.875 C-12.729375 14.740625 -12.70875 13.60625 -12.6875 12.4375 C-11.6975 12.4375 -10.7075 12.4375 -9.6875 12.4375 C-9.06875 11.9425 -8.45 11.4475 -7.8125 10.9375 C-5.12745433 9.04217365 -3.91480094 8.8864974 -0.6875 9.4375 C2.125 11.4375 2.125 11.4375 4.3125 13.4375 C3.6525 11.7875 2.9925 10.1375 2.3125 8.4375 C2.9725 8.4375 3.6325 8.4375 4.3125 8.4375 C5.93764468 6.97916642 5.93764468 6.97916642 7.3125 5.4375 C3.86890202 4.7487804 0.62627726 4.38572511 -2.875 4.4375 C-6.6875 4.4375 -6.6875 4.4375 -9.6875 3.4375 C-9.6875 2.4475 -9.6875 1.4575 -9.6875 0.4375 C-6.19951321 -0.72516226 -3.59119514 -0.7516455 0 0 Z " fill="#CEC0C4" transform="translate(72.6875,19.5625)"/>
<path d="M0 0 C8.28235294 1.03529412 8.28235294 1.03529412 11 4 C14.10839021 4.7269226 14.10839021 4.7269226 17 5 C17 8 17 8 15 11 C15.99 10.34 16.98 9.68 18 9 C18 9.66 18 10.32 18 11 C18.66 11 19.32 11 20 11 C20 10.34 20 9.68 20 9 C26.66666667 9 33.33333333 9 40 9 C40 11.97 40 14.94 40 18 C26.8 18 13.6 18 0 18 C0 12.06 0 6.12 0 0 Z " fill="#211419" transform="translate(0,42)"/>
<path d="M0 0 C0.68449219 0.14308594 1.36898438 0.28617188 2.07421875 0.43359375 C5.31053736 1.06011738 8.55335919 1.56869079 11.8125 2.0625 C13.55466797 2.32740234 13.55466797 2.32740234 15.33203125 2.59765625 C16.21246094 2.73042969 17.09289062 2.86320312 18 3 C18 2.67 18 2.34 18 2 C20.33333333 2 22.66666667 2 25 2 C26.38034893 1.68956008 27.75505487 1.35353423 29.125 1 C29.84945312 0.814375 30.57390625 0.62875 31.3203125 0.4375 C31.87460937 0.293125 32.42890625 0.14875 33 0 C33.495 1.98 33.495 1.98 34 4 C33.195625 4.268125 32.39125 4.53625 31.5625 4.8125 C28.38195089 7.5276029 28.53187065 8.62810055 28.1875 12.6875 C28.0946875 15.3171875 28.0946875 15.3171875 28 18 C23.38 18 18.76 18 14 18 C12.875 11.25 12.875 11.25 14 9 C11.03 9 8.06 9 5 9 C4.67 9.66 4.34 10.32 4 11 C3.01 10.67 2.02 10.34 1 10 C-1.33006911 9.64456573 -3.66327016 9.3086247 -6 9 C-6.33 9.66 -6.66 10.32 -7 11 C-7 9.35 -7 7.7 -7 6 C-6.34 6 -5.68 6 -5 6 C-5.33 5.01 -5.66 4.02 -6 3 C-4.7934375 3.2475 -4.7934375 3.2475 -3.5625 3.5 C-1.2715557 4.03191839 -1.2715557 4.03191839 0 4 C0 2.68 0 1.36 0 0 Z " fill="#431A1F" transform="translate(26,42)"/>
<path d="M0 0 C3.77201525 -0.134608 7.53926123 -0.23393762 11.3125 -0.3125 C12.9202832 -0.3753418 12.9202832 -0.3753418 14.56054688 -0.43945312 C15.58857422 -0.45556641 16.61660156 -0.47167969 17.67578125 -0.48828125 C18.62364502 -0.51446533 19.57150879 -0.54064941 20.5480957 -0.56762695 C23 0 23 0 24.72729492 2.38598633 C25.1472876 3.24861084 25.56728027 4.11123535 26 5 C26.98244845 6.34631825 27.97676564 7.68441297 29 9 C24.545 9.495 24.545 9.495 20 10 C20 10.66 20 11.32 20 12 C16.04 12 12.08 12 8 12 C8 12.99 8 13.98 8 15 C5.46815512 17.35723489 4.52809907 18 1 18 C0.67 18.66 0.34 19.32 0 20 C0 13.4 0 6.8 0 0 Z " fill="#101218" transform="translate(0,0)"/>
<path d="M0 0 C1.25296875 0.08378906 2.5059375 0.16757812 3.796875 0.25390625 C5.44789643 0.35709509 7.09893927 0.45994178 8.75 0.5625 C9.575 0.61857422 10.4 0.67464844 11.25 0.73242188 C12.44882813 0.80493164 12.44882813 0.80493164 13.671875 0.87890625 C14.77160645 0.94960327 14.77160645 0.94960327 15.89355469 1.02172852 C18.03312514 1.09843538 18.03312514 1.09843538 20.11816406 0.35522461 C20.73916992 0.23800049 21.36017578 0.12077637 22 0 C22.804375 0.804375 23.60875 1.60875 24.4375 2.4375 C27.68067285 5.48692486 30.52962625 5.34080862 34.875 5.3125 C36.91775737 5.23252628 38.960219 5.13618716 41 5 C41 6.65 41 8.3 41 10 C27.47 10 13.94 10 0 10 C0 6.7 0 3.4 0 0 Z " fill="#131218" transform="translate(54,50)"/>
<path d="M0 0 C2.3431213 0.25561323 4.67843403 0.59270772 7 1 C7.33 1.66 7.66 2.32 8 3 C10.80980673 3.69227032 10.80980673 3.69227032 14.0625 4.125 C15.71958984 4.37636719 15.71958984 4.37636719 17.41015625 4.6328125 C18.26480469 4.75398438 19.11945313 4.87515625 20 5 C20.33 4.34 20.66 3.68 21 3 C21 3.66 21 4.32 21 5 C21.99 4.67 22.98 4.34 24 4 C24.99 4.99 25.98 5.98 27 7 C26.01 7 25.02 7 24 7 C22.66666667 10 22.66666667 10 24 13 C23.67 13.66 23.34 14.32 23 15 C22.278125 14.34 21.55625 13.68 20.8125 13 C18.22548342 10.87524634 18.22548342 10.87524634 15.5625 10.5 C12.03150117 11.18897538 9.79798043 12.78764338 7 15 C7 15.66 7 16.32 7 17 C11.47154461 20.11956451 11.47154461 20.11956451 16.625 20.875 C19.10574652 19.96104076 21.56968455 19.04156377 24 18 C23.73136414 21.31317555 23.40940132 22.63876354 20.875 24.875 C16.29127498 26.66863153 12.54420063 25.51473354 8 24 C6.66893378 23.65772583 5.33599921 23.32248257 4 23 C4.01740234 21.78763672 4.01740234 21.78763672 4.03515625 20.55078125 C4.04417969 19.48214844 4.05320312 18.41351563 4.0625 17.3125 C4.07410156 16.25675781 4.08570313 15.20101562 4.09765625 14.11328125 C4.12986042 9.18211905 4.12986042 9.18211905 2 5 C1.01 4.67 0.02 4.34 -1 4 C-0.67 2.68 -0.34 1.36 0 0 Z M2 23 C4 24 4 24 4 24 Z " fill="#584C57" transform="translate(54,19)"/>
<path d="M0 0 C8.28235294 1.03529412 8.28235294 1.03529412 11 4 C14.10839021 4.7269226 14.10839021 4.7269226 17 5 C17 8.6635921 16.29612783 9.22881124 14 12 C12.948125 13.60875 12.948125 13.60875 11.875 15.25 C9 18 9 18 0 18 C0 12.06 0 6.12 0 0 Z " fill="#39171D" transform="translate(0,42)"/>
<path d="M0 0 C1.93681161 -0.08107583 3.8745934 -0.13922475 5.8125 -0.1875 C6.89144531 -0.22230469 7.97039063 -0.25710937 9.08203125 -0.29296875 C12 0 12 0 13.86328125 1.1640625 C15.43456353 3.70187237 15.39870657 5.59522827 15.375 8.5625 C15.38273437 9.53316406 15.39046875 10.50382812 15.3984375 11.50390625 C15.26695313 12.32761719 15.13546875 13.15132812 15 14 C11.36804504 16.42130331 9.61650652 16.21022785 5.3125 16.125 C4.13300781 16.10695313 2.95351563 16.08890625 1.73828125 16.0703125 C0.83464844 16.04710938 -0.06898437 16.02390625 -1 16 C-1 12.7 -1 9.4 -1 6 C2.96 6 6.92 6 11 6 C10.67 5.34 10.34 4.68 10 4 C7.64400765 3.53248212 7.64400765 3.53248212 4.9375 3.375 C4.01839844 3.30023437 3.09929688 3.22546875 2.15234375 3.1484375 C1.44207031 3.09945313 0.73179688 3.05046875 0 3 C0 2.01 0 1.02 0 0 Z " fill="#F6ECED" transform="translate(44,27)"/>
<path d="M0 0 C1.8125 0.0625 1.8125 0.0625 4 1 C5.75 4.5625 5.75 4.5625 7 8 C7.99 5.36 8.98 2.72 10 0 C11.32 0 12.64 0 14 0 C14.99 2.31 15.98 4.62 17 7 C17.99 4.69 18.98 2.38 20 0 C20.99 0 21.98 0 23 0 C22.71515154 1.73030291 22.42180062 3.45920714 22.125 5.1875 C21.96257813 6.15042969 21.80015625 7.11335938 21.6328125 8.10546875 C21.01960483 10.91032604 20.14333657 13.37224747 19 16 C17.35 16 15.7 16 14 16 C13.67 13.36 13.34 10.72 13 8 C12.34 8 11.68 8 11 8 C10.855625 8.94875 10.71125 9.8975 10.5625 10.875 C10 14 10 14 9 16 C7.68 16 6.36 16 5 16 C4.1605118 13.89828133 3.32860344 11.79353375 2.5 9.6875 C2.0359375 8.51574219 1.571875 7.34398437 1.09375 6.13671875 C0 3 0 3 0 0 Z " fill="#F8EEEE" transform="translate(2,27)"/>
<path d="M0 0 C7.59 0 15.18 0 23 0 C22.67 0.66 22.34 1.32 22 2 C21.77141886 4.0374763 21.58975722 6.08040303 21.4375 8.125 C21.35371094 9.22070312 21.26992188 10.31640625 21.18359375 11.4453125 C21.09271484 12.70988281 21.09271484 12.70988281 21 14 C20.67 14 20.34 14 20 14 C19.67 12.35 19.34 10.7 19 9 C18.236875 9 17.47375 9 16.6875 9 C14.79166667 9 12.89583333 9 11 9 C11.99 10.485 11.99 10.485 13 12 C12.67 12.66 12.34 13.32 12 14 C9.99387601 12.04761147 7.99507567 10.08862178 6 8.125 C5.42765625 7.56941406 4.8553125 7.01382812 4.265625 6.44140625 C2.80549218 4.99865596 1.39850702 3.5025626 0 2 C0 1.34 0 0.68 0 0 Z " fill="#101218" transform="translate(24,0)"/>
<path d="M0 0 C0 0.99 0 1.98 0 3 C-0.95712891 3.09087891 -0.95712891 3.09087891 -1.93359375 3.18359375 C-3.17302734 3.30927734 -3.17302734 3.30927734 -4.4375 3.4375 C-5.67306641 3.55931641 -5.67306641 3.55931641 -6.93359375 3.68359375 C-8.98662025 3.78930815 -8.98662025 3.78930815 -10 5 C-6.37 5.33 -2.74 5.66 1 6 C1 7.32 1 8.64 1 10 C-4.445 10.495 -4.445 10.495 -10 11 C-8.41727399 12.58272601 -6.61965997 12.34735747 -4.4375 12.5625 C-3.61121094 12.64628906 -2.78492188 12.73007812 -1.93359375 12.81640625 C-1.29550781 12.87699219 -0.65742187 12.93757813 0 13 C0 13.99 0 14.98 0 16 C-9.89914663 16.61442979 -9.89914663 16.61442979 -13.6875 14.5 C-15.56591052 10.92207519 -15.75312309 7.95187168 -15 4 C-11.97349738 -1.76476689 -5.67238767 -0.35207923 0 0 Z " fill="#F7EBEC" transform="translate(41,27)"/>
<path d="M0 0 C4.24119766 0.56015818 8.10012095 0.04595475 12.3125 -0.5625 C12.3125 1.0875 12.3125 2.7375 12.3125 4.4375 C12.9725 4.4375 13.6325 4.4375 14.3125 4.4375 C14.6425 2.7875 14.9725 1.1375 15.3125 -0.5625 C17.6225 -0.5625 19.9325 -0.5625 22.3125 -0.5625 C22.3125 2.0775 22.3125 4.7175 22.3125 7.4375 C20.06193278 7.32316637 17.81203326 7.19563564 15.5625 7.0625 C14.30953125 6.99289063 13.0565625 6.92328125 11.765625 6.8515625 C8.58407026 6.47006386 7.07142439 5.84256046 4.3125 4.4375 C1.59224835 4.23362723 1.59224835 4.23362723 -1.25 4.375 C-4.51643668 4.47693764 -6.55981661 4.48006113 -9.6875 3.4375 C-9.6875 2.4475 -9.6875 1.4575 -9.6875 0.4375 C-6.19951321 -0.72516226 -3.59119514 -0.7516455 0 0 Z " fill="#352B35" transform="translate(72.6875,19.5625)"/>
<path d="M0 0 C2.23828125 1.3125 2.23828125 1.3125 4.3125 3 C5.00988281 3.556875 5.70726563 4.11375 6.42578125 4.6875 C6.94527344 5.120625 7.46476562 5.55375 8 6 C7.34 7.32 6.68 8.64 6 10 C6 9.34 6 8.68 6 8 C5.13375 8.680625 4.2675 9.36125 3.375 10.0625 C0 12 0 12 -3.125 11.875 C-5.61462357 11.11728848 -7.75120962 10.29737907 -10 9 C-10.33 9.66 -10.66 10.32 -11 11 C-12 10 -12 10 -12.0625 6.4375 C-12.041875 5.303125 -12.02125 4.16875 -12 3 C-11.01 3 -10.02 3 -9 3 C-8.38125 2.505 -7.7625 2.01 -7.125 1.5 C-4.45108947 -0.38746626 -3.22466099 -0.34396384 0 0 Z " fill="#E8DEE0" transform="translate(72,29)"/>
<path d="M0 0 C1.77503906 0.03480469 1.77503906 0.03480469 3.5859375 0.0703125 C5.36871094 0.09738281 5.36871094 0.09738281 7.1875 0.125 C8.10273437 0.14820312 9.01796875 0.17140625 9.9609375 0.1953125 C9.6309375 1.1853125 9.3009375 2.1753125 8.9609375 3.1953125 C8.89290783 4.92326602 8.87598105 6.65366615 8.8984375 8.3828125 C8.91197266 9.73439453 8.91197266 9.73439453 8.92578125 11.11328125 C8.93738281 11.80035156 8.94898438 12.48742188 8.9609375 13.1953125 C7.9709375 13.6903125 7.9709375 13.6903125 6.9609375 14.1953125 C6.9609375 13.5353125 6.9609375 12.8753125 6.9609375 12.1953125 C6.33445312 12.06253906 5.70796875 11.92976562 5.0625 11.79296875 C4.24523438 11.61636719 3.42796875 11.43976562 2.5859375 11.2578125 C1.77382813 11.08378906 0.96171875 10.90976563 0.125 10.73046875 C-2.0390625 10.1953125 -2.0390625 10.1953125 -4.0390625 9.1953125 C-4.0390625 11.5053125 -4.0390625 13.8153125 -4.0390625 16.1953125 C-4.3690625 16.1953125 -4.6990625 16.1953125 -5.0390625 16.1953125 C-5.09290771 13.90389964 -5.13178337 11.61213062 -5.1640625 9.3203125 C-5.18726563 8.04414063 -5.21046875 6.76796875 -5.234375 5.453125 C-4.97553706 1.13570819 -4.34303849 0.27911558 0 0 Z " fill="#101218" transform="translate(52.0390625,-0.1953125)"/>
<path d="M0 0 C3.81276748 1.17315922 6.37869453 0.77426109 10.25 0 C10.064375 0.763125 9.87875 1.52625 9.6875 2.3125 C9.02180827 5.08967375 9.02180827 5.08967375 10.25 8 C5.63034912 8.95946595 1.56870875 8.96102244 -3.125 8.5625 C-4.37023438 8.46066406 -5.61546875 8.35882813 -6.8984375 8.25390625 C-7.83945312 8.17011719 -8.78046875 8.08632813 -9.75 8 C-9.75 7.01 -9.75 6.02 -9.75 5 C-8.43662604 3.9739266 -7.10335895 2.97272675 -5.75 2 C-5.75 1.34 -5.75 0.68 -5.75 0 C-2.75 -1 -2.75 -1 0 0 Z " fill="#1D222B" transform="translate(64.75,43)"/>
<path d="M0 0 C0.66 0 1.32 0 2 0 C2.33 2.64 2.66 5.28 3 8 C4.65 8 6.3 8 8 8 C8.33 6.68 8.66 5.36 9 4 C11.375 3.8125 11.375 3.8125 14 4 C14.99 5.485 14.99 5.485 16 7 C15.01 7.33 14.02 7.66 13 8 C13.66 9.98 14.32 11.96 15 14 C14.401875 13.505 13.80375 13.01 13.1875 12.5 C11.02970006 10.71723582 11.02970006 10.71723582 8 11 C8 11.66 8 12.32 8 13 C7.34 13 6.68 13 6 13 C6 14.65 6 16.3 6 18 C4 18 2 18 0 18 C1.32 16.35 2.64 14.7 4 13 C2.88625 12.9175 1.7725 12.835 0.625 12.75 C-3 12 -3 12 -4.4375 9.9375 C-4.623125 9.298125 -4.80875 8.65875 -5 8 C-4.01 8 -3.02 8 -2 8 C-1.34 5.36 -0.68 2.72 0 0 Z " fill="#8C2E35" transform="translate(13,35)"/>
<path d="M0 0 C0 1.32 0 2.64 0 4 C2.97 4.495 2.97 4.495 6 5 C5.34 5.66 4.68 6.32 4 7 C3.67 7.99 3.34 8.98 3 10 C2.01 9.34 1.02 8.68 0 8 C-2.73872955 7.54227937 -2.73872955 7.54227937 -5.6875 7.375 C-7.17830078 7.26285156 -7.17830078 7.26285156 -8.69921875 7.1484375 C-9.45847656 7.09945313 -10.21773437 7.05046875 -11 7 C-11.33 8.32 -11.66 9.64 -12 11 C-12.33 10.01 -12.66 9.02 -13 8 C-14.49985609 6.33289654 -14.49985609 6.33289654 -16 5 C-14.35 4.67 -12.7 4.34 -11 4 C-11 3.01 -11 2.02 -11 1 C-7.32589215 -0.17571451 -3.83070817 -0.07366746 0 0 Z " fill="#65323A" transform="translate(54,19)"/>
<path d="M0 0 C0.66 0.33 1.32 0.66 2 1 C1.67 1.33 1.34 1.66 1 2 C0.92728259 4.35313555 0.91629132 6.70833668 0.9375 9.0625 C0.94652344 10.35285156 0.95554687 11.64320312 0.96484375 12.97265625 C0.97644531 13.97167969 0.98804688 14.97070312 1 16 C-2 16 -2 16 -5 15 C-5.33 15.66 -5.66 16.32 -6 17 C-8.64 16.67 -11.28 16.34 -14 16 C-14 13.69 -14 11.38 -14 9 C-9.22423661 9.4682121 -5.95523655 10.24331998 -2 13 C-2.02320313 12.31292969 -2.04640625 11.62585937 -2.0703125 10.91796875 C-2.08835937 10.01691406 -2.10640625 9.11585937 -2.125 8.1875 C-2.14820313 7.29417969 -2.17140625 6.40085937 -2.1953125 5.48046875 C-2 3 -2 3 0 0 Z " fill="#22151A" transform="translate(62,0)"/>
<path d="M0 0 C0.66 1.32 1.32 2.64 2 4 C1.195625 4.268125 0.39125 4.53625 -0.4375 4.8125 C-3.61804911 7.5276029 -3.46812935 8.62810055 -3.8125 12.6875 C-3.89743679 14.45739906 -3.96691359 16.228373 -4 18 C-4.99 18 -5.98 18 -7 18 C-8.96923077 5.93846154 -8.96923077 5.93846154 -7 2 C-4.6859378 1.26924352 -2.35171131 0.59861742 0 0 Z " fill="#491A1F" transform="translate(58,42)"/>
<path d="M0 0 C4.95 0.33 9.9 0.66 15 1 C13.49429938 4.01140123 10.89855171 4.5627182 7.91015625 5.90234375 C5.68264809 6.99389198 5.68264809 6.99389198 4 10 C2.68 10 1.36 10 0 10 C0 6.7 0 3.4 0 0 Z " fill="#26151A" transform="translate(54,50)"/>
<path d="M0 0 C4.29 0 8.58 0 13 0 C13 0.99 13 1.98 13 3 C11.35 3 9.7 3 8 3 C8 6.96 8 10.92 8 15 C7.01 15.33 6.02 15.66 5 16 C5 11.71 5 7.42 5 3 C3.35 3 1.7 3 0 3 C0 2.01 0 1.02 0 0 Z " fill="#EB3F4B" transform="translate(80,27)"/>
<path d="M0 0 C1.6875 0.1875 1.6875 0.1875 4 1 C4.66 1.825 5.32 2.65 6 3.5 C10.5244926 7.2704105 15.27371699 6.89953889 21 7 C20.67 7.99 20.34 8.98 20 10 C9.88443236 11.0621346 9.88443236 11.0621346 5.421875 8.546875 C3.37046337 6.79063051 1.59007422 5.1840137 0 3 C0 2.01 0 1.02 0 0 Z " fill="#471A1F" transform="translate(74,46)"/>
<path d="M0 0 C1.051875 0.680625 2.10375 1.36125 3.1875 2.0625 C5.70618194 3.49667905 6.67061356 4.01568507 9.625 3.875 C12.10574652 2.96104076 14.56968455 2.04156377 17 1 C16.73136414 4.31317555 16.40940132 5.63876354 13.875 7.875 C10.12772146 9.34132638 7.86505322 9.00205083 4 8 C1.44011086 6.29340724 1.08011118 5.3131619 0.3125 2.3125 C0.209375 1.549375 0.10625 0.78625 0 0 Z " fill="#DE5F6A" transform="translate(61,36)"/>
<path d="M0 0 C0.99 0.33 1.98 0.66 3 1 C2.34 1 1.68 1 1 1 C1.3609375 1.90363281 1.721875 2.80726562 2.09375 3.73828125 C2.78984375 5.50751953 2.78984375 5.50751953 3.5 7.3125 C3.9640625 8.48425781 4.428125 9.65601563 4.90625 10.86328125 C6 14 6 14 6 17 C4.68 17.33 3.36 17.66 2 18 C2 17.34 2 16.68 2 16 C1.01 16 0.02 16 -1 16 C-1.02692484 13.70839681 -1.04636124 11.41670454 -1.0625 9.125 C-1.07410156 7.84882812 -1.08570312 6.57265625 -1.09765625 5.2578125 C-1 2 -1 2 0 0 Z " fill="#832F36" transform="translate(1,26)"/>
<path d="M0 0 C-2 2 -2 2 -5 3 C-3.35 3 -1.7 3 0 3 C0 3.99 0 4.98 0 6 C-2.75924185 7.80411967 -3.88972103 8.0127245 -7.25 7.625 C-8.61125 7.315625 -8.61125 7.315625 -10 7 C-10.89674777 4.48910624 -11.13172674 3.35464891 -10.1875 0.8125 C-7.38147014 -3.47038768 -4.23058599 -1.33185115 0 0 Z " fill="#702A30" transform="translate(33,19)"/>
<path d="M0 0 C2.375 3.0625 2.375 3.0625 4 6 C3.67 6.66 3.34 7.32 3 8 C2.278125 7.34 1.55625 6.68 0.8125 6 C-1.77451658 3.87524634 -1.77451658 3.87524634 -4.4375 3.5 C-7.92034999 4.17958049 -10.18188275 5.90279646 -13 8 C-12.5047783 4.33535945 -11.9791794 2.29167646 -9 0 C-5.3678011 -1.21073297 -3.65436277 -1.11868248 0 0 Z " fill="#E35D68" transform="translate(74,26)"/>
<path d="M0 0 C2.80747914 0.40942404 4.36394509 0.34998055 7 -0.5625 C6.67 0.7575 6.34 2.0775 6 3.4375 C6.66 3.7675 7.32 4.0975 8 4.4375 C5.56242587 4.46448422 3.12515085 4.48433099 0.6875 4.5 C-0.00279297 4.50837891 -0.69308594 4.51675781 -1.40429688 4.52539062 C-4.5483025 4.54057906 -6.99420019 4.43943327 -10 3.4375 C-10 2.4475 -10 1.4575 -10 0.4375 C-6.39863261 -0.7629558 -3.71342941 -0.69626802 0 0 Z " fill="#AFA3A9" transform="translate(73,19.5625)"/>
<path d="M0 0 C0.625 1.8125 0.625 1.8125 1 4 C0.01 5.485 0.01 5.485 -1 7 C-3.5 7.375 -3.5 7.375 -6 7 C-6.66 6.01 -7.32 5.02 -8 4 C-8.99 3.67 -9.98 3.34 -11 3 C-11.33 3.66 -11.66 4.32 -12 5 C-12.33 3.68 -12.66 2.36 -13 1 C-8.61414671 0.29826347 -4.44209357 -0.10834375 0 0 Z " fill="#A6767B" transform="translate(40,19)"/>
<path d="M0 0 C0.68449219 0.14308594 1.36898438 0.28617188 2.07421875 0.43359375 C5.31053736 1.06011738 8.55335919 1.56869079 11.8125 2.0625 C13.55466797 2.32740234 13.55466797 2.32740234 15.33203125 2.59765625 C16.21246094 2.73042969 17.09289062 2.86320312 18 3 C18 2.67 18 2.34 18 2 C19.65 2 21.3 2 23 2 C23 2.99 23 3.98 23 5 C19.91716557 5.14554346 16.83521561 5.23413821 13.75 5.3125 C12.44095703 5.3753418 12.44095703 5.3753418 11.10546875 5.43945312 C8.63964906 5.48651075 6.42179388 5.47326916 4 5 C1.390625 2.48046875 1.390625 2.48046875 0 0 Z " fill="#671E24" transform="translate(26,42)"/>
<path d="M0 0 C0.33 0.66 0.66 1.32 1 2 C3.31 2 5.62 2 8 2 C8 2.33 8 2.66 8 3 C7.24074219 3.03738281 6.48148438 3.07476563 5.69921875 3.11328125 C4.70535156 3.17902344 3.71148437 3.24476562 2.6875 3.3125 C1.70136719 3.37050781 0.71523438 3.42851562 -0.30078125 3.48828125 C-3.30681647 4.05816636 -4.27674507 4.50581524 -6 7 C-6.57017808 9.04100238 -6.57017808 9.04100238 -6.6875 11.1875 C-6.790625 12.445625 -6.89375 13.70375 -7 15 C-8.32 14.67 -9.64 14.34 -11 14 C-10.01 10.37 -9.02 6.74 -8 3 C-8.99 2.67 -9.98 2.34 -11 2 C-9.39125 2.061875 -9.39125 2.061875 -7.75 2.125 C-4.34252515 2.0114175 -2.79260369 1.78726636 0 0 Z " fill="#D05A62" transform="translate(33,24)"/>
<path d="M0 0 C2.64 0.66 5.28 1.32 8 2 C7.01 2.495 7.01 2.495 6 3 C6 3.66 6 4.32 6 5 C7.32 5 8.64 5 10 5 C9.34 7.97 8.68 10.94 8 14 C5.05307414 11.05307414 4.39312529 9.74402421 3 6 C2.01517978 3.99248185 1.01847486 1.99065541 0 0 Z " fill="#B34B52" transform="translate(2,22)"/>
<path d="M0 0 C4.33333333 4.33333333 8.66666667 8.66666667 13 13 C12.01 11.35 11.02 9.7 10 8 C12.95409701 9.37154504 15.44008376 10.98863724 18 13 C17.67 13.99 17.34 14.98 17 16 C16.34 16 15.68 16 15 16 C14.34 16.99 13.68 17.98 13 19 C12.78601562 18.29101562 12.57203125 17.58203125 12.3515625 16.8515625 C10.666744 13.29688763 8.21831428 11.00181827 5.375 8.375 C3.49190053 6.63313299 1.74753602 4.88780647 0 3 C0 2.01 0 1.02 0 0 Z " fill="#5C1B21" transform="translate(23,0)"/>
<path d="M0 0 C1.65 0 3.3 0 5 0 C5 3.63 5 7.26 5 11 C2.03 10.505 2.03 10.505 -1 10 C-0.67 6.7 -0.34 3.4 0 0 Z " fill="#393643" transform="translate(79,31)"/>
<path d="M0 0 C2.92879371 0.62759865 5.36095629 1.58622659 8 3 C7.67 4.32 7.34 5.64 7 7 C4.75 7.75 4.75 7.75 2 8 C-0.3125 6.0625 -0.3125 6.0625 -2 4 C-1.34 2.68 -0.68 1.36 0 0 Z " fill="#76424C" transform="translate(67,31)"/>
<path d="M0 0 C1.45792884 -0.05399736 2.91642712 -0.09279177 4.375 -0.125 C5.18710938 -0.14820313 5.99921875 -0.17140625 6.8359375 -0.1953125 C9 0 9 0 11 2 C8 4 8 4 6 4 C5.34 4.66 4.68 5.32 4 6 C2.68 6 1.36 6 0 6 C0 4.02 0 2.04 0 0 Z " fill="#131218" transform="translate(0,54)"/>
<path d="M0 0 C1.51400391 0.01740234 1.51400391 0.01740234 3.05859375 0.03515625 C4.07050781 0.04417969 5.08242188 0.05320312 6.125 0.0625 C7.29869141 0.07990234 7.29869141 0.07990234 8.49609375 0.09765625 C8.49609375 0.42765625 8.49609375 0.75765625 8.49609375 1.09765625 C5.19609375 1.09765625 1.89609375 1.09765625 -1.50390625 1.09765625 C-1.50390625 2.08765625 -1.50390625 3.07765625 -1.50390625 4.09765625 C1.79609375 4.09765625 5.09609375 4.09765625 8.49609375 4.09765625 C8.82609375 5.08765625 9.15609375 6.07765625 9.49609375 7.09765625 C8.50609375 7.09765625 7.51609375 7.09765625 6.49609375 7.09765625 C6.49609375 6.43765625 6.49609375 5.77765625 6.49609375 5.09765625 C-0.10390625 5.09765625 -6.70390625 5.09765625 -13.50390625 5.09765625 C-13.50390625 4.76765625 -13.50390625 4.43765625 -13.50390625 4.09765625 C-10.53390625 4.09765625 -7.56390625 4.09765625 -4.50390625 4.09765625 C-4.17390625 3.10765625 -3.84390625 2.11765625 -3.50390625 1.09765625 C-2.50390625 0.09765625 -2.50390625 0.09765625 0 0 Z " fill="#CC6168" transform="translate(45.50390625,25.90234375)"/>
<path d="M0 0 C0.66 0.33 1.32 0.66 2 1 C1.67 1.33 1.34 1.66 1 2 C0.97361404 5.61487618 1.02961755 9.21686354 1.12695312 12.83007812 C1.15676269 14.88693807 1.08486235 16.94467525 1 19 C0.34 19.66 -0.32 20.32 -1 21 C-1.99 20.34 -2.98 19.68 -4 19 C-3.67 18.67 -3.34 18.34 -3 18 C-2.76309039 14.60429564 -2.6035831 11.21583298 -2.48242188 7.81445312 C-2.21328125 2.21328125 -2.21328125 2.21328125 0 0 Z " fill="#521E25" transform="translate(47,0)"/>
<path d="M0 0 C0.99 0.66 1.98 1.32 3 2 C3 2.66 3 3.32 3 4 C4.65 4.33 6.3 4.66 8 5 C7.67 6.32 7.34 7.64 7 9 C6.34 9 5.68 9 5 9 C5 8.34 5 7.68 5 7 C2.36 7 -0.28 7 -3 7 C-3 6.34 -3 5.68 -3 5 C-2.34 5 -1.68 5 -1 5 C-0.67 3.35 -0.34 1.7 0 0 Z " fill="#883036" transform="translate(11,20)"/>
<path d="M0 0 C1.65 0 3.3 0 5 0 C5 1.32 5 2.64 5 4 C5.66 4 6.32 4 7 4 C7 4.66 7 5.32 7 6 C7.66 6 8.32 6 9 6 C11.04169485 8.90548882 12 10.40142046 12 14 C9.99387601 12.04761147 7.99507567 10.08862178 6 8.125 C5.42765625 7.56941406 4.8553125 7.01382812 4.265625 6.44140625 C2.80549218 4.99865596 1.39850702 3.5025626 0 2 C0 1.34 0 0.68 0 0 Z " fill="#24141A" transform="translate(24,0)"/>
<path d="M0 0 C3.81276748 1.17315922 6.37869453 0.77426109 10.25 0 C9.92 1.32 9.59 2.64 9.25 4 C3.8110835 4.21755666 -0.62080814 4.10428384 -5.75 2 C-5.75 1.34 -5.75 0.68 -5.75 0 C-2.75 -1 -2.75 -1 0 0 Z " fill="#3B3743" transform="translate(64.75,43)"/>
<path d="M0 0 C2.375 -0.1875 2.375 -0.1875 5 0 C5.66 0.99 6.32 1.98 7 3 C6.01 3.33 5.02 3.66 4 4 C4.66 5.98 5.32 7.96 6 10 C5.4225 9.54625 4.845 9.0925 4.25 8.625 C2.2199667 7.15886484 0.26460157 6.05142216 -2 5 C-1.34 3.35 -0.68 1.7 0 0 Z " fill="#AA3840" transform="translate(22,39)"/>
<path d="M0 0 C0.66 0 1.32 0 2 0 C2.33 2.64 2.66 5.28 3 8 C2.01 8 1.02 8 0 8 C-0.33 8.66 -0.66 9.32 -1 10 C0.32 10 1.64 10 3 10 C3 10.66 3 11.32 3 12 C1.02 12 -0.96 12 -3 12 C-3.66 10.68 -4.32 9.36 -5 8 C-4.01 8 -3.02 8 -2 8 C-1.34 5.36 -0.68 2.72 0 0 Z " fill="#BD4B53" transform="translate(13,35)"/>
<path d="M0 0 C1.32 0 2.64 0 4 0 C4.33 2.97 4.66 5.94 5 9 C3.35 9 1.7 9 0 9 C0 6.03 0 3.06 0 0 Z " fill="#1D1419" transform="translate(42,51)"/>
<path d="M0 0 C-0.33 1.65 -0.66 3.3 -1 5 C-4.375 5.1875 -4.375 5.1875 -8 5 C-8.66 4.01 -9.32 3.02 -10 2 C-3.375 0 -3.375 0 0 0 Z " fill="#3D181E" transform="translate(22,18)"/>
<path d="M0 0 C2.0625 0.4375 2.0625 0.4375 4 1 C3.01 2.485 3.01 2.485 2 4 C1.61535105 9.33468429 1.61535105 9.33468429 4 14 C2.68 14.33 1.36 14.66 0 15 C-1.37252731 12.25494537 -1.13229255 9.99672588 -1.125 6.9375 C-1.12757812 5.85339844 -1.13015625 4.76929688 -1.1328125 3.65234375 C-1 1 -1 1 0 0 Z M-3 14 C-1 15 -1 15 -1 15 Z " fill="#864A52" transform="translate(59,28)"/>
<path d="M0 0 C1.65 0 3.3 0 5 0 C5 1.65 5 3.3 5 5 C5.66 5.33 6.32 5.66 7 6 C5.02 6.33 3.04 6.66 1 7 C-0.0625 4.625 -0.0625 4.625 -1 2 C-0.67 1.34 -0.34 0.68 0 0 Z " fill="#79747C" transform="translate(80,19)"/>
<path d="M0 0 C6.27 0 12.54 0 19 0 C15 2 15 2 12 2 C11.67 3.32 11.34 4.64 11 6 C10.34 6 9.68 6 9 6 C9 4.35 9 2.7 9 1 C8.071875 1.185625 7.14375 1.37125 6.1875 1.5625 C3 2 3 2 0 1 C0 0.67 0 0.34 0 0 Z " fill="#211A21" transform="translate(76,18)"/>
<path d="M0 0 C5.28 0.33 10.56 0.66 16 1 C16 1.66 16 2.32 16 3 C10.39 3 4.78 3 -1 3 C-0.67 2.01 -0.34 1.02 0 0 Z " fill="#511A20" transform="translate(79,43)"/>
<path d="M0 0 C3.63 0 7.26 0 11 0 C11.33 1.98 11.66 3.96 12 6 C11.67 5.01 11.34 4.02 11 3 C10.06027344 3.05220703 10.06027344 3.05220703 9.1015625 3.10546875 C8.28429688 3.13253906 7.46703125 3.15960938 6.625 3.1875 C5.81289063 3.22230469 5.00078125 3.25710937 4.1640625 3.29296875 C3.44992188 3.19628906 2.73578125 3.09960938 2 3 C1.34 2.01 0.68 1.02 0 0 Z " fill="#C4414A" transform="translate(30,37)"/>
<path d="M0 0 C-0.66 0.66 -1.32 1.32 -2 2 C-2.99 2 -3.98 2 -5 2 C-5.33 2.66 -5.66 3.32 -6 4 C-8.5625 4.625 -8.5625 4.625 -11 5 C-10.39816251 2.97954558 -9.72693904 0.97888961 -9 -1 C-5.79937313 -2.60031344 -3.27728194 -1.03173691 0 0 Z " fill="#422229" transform="translate(33,19)"/>
<path d="M0 0 C0.66 0.33 1.32 0.66 2 1 C1.67 1.33 1.34 1.66 1 2 C0.92728259 4.35313555 0.91629132 6.70833668 0.9375 9.0625 C0.94652344 10.35285156 0.95554688 11.64320312 0.96484375 12.97265625 C0.97644531 13.97167969 0.98804688 14.97070312 1 16 C0.01 16 -0.98 16 -2 16 C-2.05402274 13.89611431 -2.09280256 11.79183286 -2.125 9.6875 C-2.14820313 8.51574219 -2.17140625 7.34398437 -2.1953125 6.13671875 C-2 3 -2 3 0 0 Z " fill="#4D1A20" transform="translate(62,0)"/>
<path d="M0 0 C12.00222145 0.21056529 12.00222145 0.21056529 15.25 3.5625 C15.8275 4.366875 16.405 5.17125 17 6 C14.48391792 5.3961403 12.08615878 4.69538626 9.625 3.875 C5.9157766 2.97967021 3.66564771 3.10593958 0 4 C0 2.68 0 1.36 0 0 Z " fill="#4F1C21" transform="translate(8,11)"/>
<path d="M0 0 C0.86625 0.556875 0.86625 0.556875 1.75 1.125 C1.75 1.785 1.75 2.445 1.75 3.125 C0.1 3.125 -1.55 3.125 -3.25 3.125 C-3.58 3.785 -3.91 4.445 -4.25 5.125 C-3.59 5.455 -2.93 5.785 -2.25 6.125 C-3.9 5.795 -5.55 5.465 -7.25 5.125 C-7 3.25 -7 3.25 -6.25 1.125 C-3.78477471 -0.74517091 -2.92889069 -1.13901305 0 0 Z " fill="#21232C" transform="translate(82.25,40.875)"/>
<path d="M0 0 C0.33 0.66 0.66 1.32 1 2 C1.99 1.67 2.98 1.34 4 1 C4.99 1.99 5.98 2.98 7 4 C6.01 4 5.02 4 4 4 C3.67 4.99 3.34 5.98 3 7 C-0.465 5.02 -0.465 5.02 -4 3 C-2.68 2.67 -1.36 2.34 0 2 C0 1.34 0 0.68 0 0 Z " fill="#38303A" transform="translate(74,22)"/>
<path d="M0 0 C2.64 0.33 5.28 0.66 8 1 C7.34 3.31 6.68 5.62 6 8 C5.34 8 4.68 8 4 8 C3.67 7.01 3.34 6.02 3 5 C2.01 4.67 1.02 4.34 0 4 C0 2.68 0 1.36 0 0 Z " fill="#221E26" transform="translate(37,15)"/>
<path d="M0 0 C2.49361571 1.20381448 4.68143083 2.45428722 7 4 C6.34 5.32 5.68 6.64 5 8 C5 7.34 5 6.68 5 6 C3.68 6.33 2.36 6.66 1 7 C0.67 4.69 0.34 2.38 0 0 Z " fill="#EADFE1" transform="translate(73,31)"/>
<path d="M0 0 C1.32 0.66 2.64 1.32 4 2 C3.01 4.64 2.02 7.28 1 10 C-0.41377341 7.36095629 -1.37240135 4.92879371 -2 2 C-1.34 2 -0.68 2 0 2 C0 1.34 0 0.68 0 0 Z " fill="#CD5A62" transform="translate(18,27)"/>
<path d="M0 0 C2.475 0.495 2.475 0.495 5 1 C5.33 2.65 5.66 4.3 6 6 C3.5625 5.25 3.5625 5.25 1 4 C0.1875 1.875 0.1875 1.875 0 0 Z " fill="#551E23" transform="translate(4,43)"/>
<path d="M0 0 C0 1.65 0 3.3 0 5 C-2.31 4.34 -4.62 3.68 -7 3 C-7.33 3.66 -7.66 4.32 -8 5 C-8.33 3.68 -8.66 2.36 -9 1 C-2.25 0 -2.25 0 0 0 Z " fill="#C3BBC0" transform="translate(36,19)"/>
<path d="M0 0 C0.99 0.2165625 0.99 0.2165625 2 0.4375 C5.65599551 1.12299916 9.30622195 1.56175515 13 2 C13 2.66 13 3.32 13 4 C7.73946963 4.31563182 4.55426184 3.66590937 0 1 C0 0.67 0 0.34 0 0 Z " fill="#7B1D23" transform="translate(26,42)"/>
<path d="M0 0 C1.0828125 0.99 1.0828125 0.99 2.1875 2 C5.21597933 4.1535853 6.39703406 4.41176754 10 4 C9.01 5.485 9.01 5.485 8 7 C5.03 6.505 5.03 6.505 2 6 C1.34 4.02 0.68 2.04 0 0 Z " fill="#D6C1C5" transform="translate(64,34)"/>
<path d="M0 0 C5.28089024 -0.30466674 6.577168 -0.317124 11 3 C7.7 3 4.4 3 1 3 C0.67 2.01 0.34 1.02 0 0 Z " fill="#181C24" transform="translate(47,16)"/>
<path d="M0 0 C0 0.99 0 1.98 0 3 C-1.2065625 3.433125 -1.2065625 3.433125 -2.4375 3.875 C-5.1326468 4.73262568 -5.1326468 4.73262568 -6 7 C-6.66 7 -7.32 7 -8 7 C-7.67 5.35 -7.34 3.7 -7 2 C-4.69 1.34 -2.38 0.68 0 0 Z " fill="#701D23" transform="translate(58,42)"/>
<path d="M0 0 C-0.66 1.32 -1.32 2.64 -2 4 C-2 3.34 -2 2.68 -2 2 C-2.66 2 -3.32 2 -4 2 C-4.33 2.99 -4.66 3.98 -5 5 C-5 4.34 -5 3.68 -5 3 C-6.32 3.33 -7.64 3.66 -9 4 C-9 3.01 -9 2.02 -9 1 C-5.92677456 0.08941469 -3.19902639 -0.08886184 0 0 Z " fill="#B8B3B7" transform="translate(52,19)"/>
<path d="M0 0 C1.65 0.33 3.3 0.66 5 1 C5 2.32 5 3.64 5 5 C3.02 5 1.04 5 -1 5 C-0.67 3.35 -0.34 1.7 0 0 Z " fill="#9F9AA0" transform="translate(88,19)"/>
<path d="M0 0 C2.64 0 5.28 0 8 0 C7.67 0.99 7.34 1.98 7 3 C4.69 3 2.38 3 0 3 C0 2.01 0 1.02 0 0 Z " fill="#BF424A" transform="translate(47,37)"/>
<path d="M0 0 C0.33 0.66 0.66 1.32 1 2 C0.67 2.66 0.34 3.32 0 4 C0.66 4.33 1.32 4.66 2 5 C-3.75 5.125 -3.75 5.125 -6 4 C-6 3.01 -6 2.02 -6 1 C-4.02 0.67 -2.04 0.34 0 0 Z " fill="#BCB3B8" transform="translate(79,19)"/>
<path d="M0 0 C1.64826111 2.96687001 2.44271087 5.65626525 3 9 C1.68 9.33 0.36 9.66 -1 10 C-0.814375 9.443125 -0.62875 8.88625 -0.4375 8.3125 C0.07438502 5.60682204 -0.42343384 3.66661851 -1 1 C-0.67 0.67 -0.34 0.34 0 0 Z " fill="#C6525B" transform="translate(4,34)"/>
<path d="M0 0 C1.65 0 3.3 0 5 0 C5 3.63 5 7.26 5 11 C4.67 11 4.34 11 4 11 C4 8.36 4 5.72 4 3 C2.68 3 1.36 3 0 3 C0 2.01 0 1.02 0 0 Z " fill="#604C56" transform="translate(79,31)"/>
<path d="M0 0 C2.0625 0.4375 2.0625 0.4375 4 1 C4.33 2.32 4.66 3.64 5 5 C3.35 5 1.7 5 0 5 C-0.5625 3.0625 -0.5625 3.0625 -1 1 C-0.67 0.67 -0.34 0.34 0 0 Z " fill="#AFABB0" transform="translate(54,19)"/>
<path d="M0 0 C0.99 0.33 1.98 0.66 3 1 C3.33 1.99 3.66 2.98 4 4 C0.86650268 5.04449911 0.01031744 4.93423645 -3 4 C-3 3.34 -3 2.68 -3 2 C-2.01 1.34 -1.02 0.68 0 0 Z " fill="#43191E" transform="translate(3,5)"/>
<path d="M0 0 C2.96404505 2.80804268 5.44499019 5.18315774 7 9 C6.4225 8.54625 5.845 8.0925 5.25 7.625 C3.2199667 6.15886484 1.26460157 5.05142216 -1 4 C-0.67 2.68 -0.34 1.36 0 0 Z " fill="#B44D56" transform="translate(21,40)"/>
<path d="M0 0 C2.625 0.375 2.625 0.375 5 1 C4.34 2.98 3.68 4.96 3 7 C1.35 5.35 -0.3 3.7 -2 2 C-1.34 1.34 -0.68 0.68 0 0 Z " fill="#712026" transform="translate(40,23)"/>
<path d="M0 0 C2 2 2 2 2.125 5.625 C2.08375 6.73875 2.0425 7.8525 2 9 C1.01 9 0.02 9 -1 9 C-0.67 6.03 -0.34 3.06 0 0 Z " fill="#191319" transform="translate(49,51)"/>
<path d="M0 0 C0.99 0 1.98 0 3 0 C3 0.66 3 1.32 3 2 C3.66 2.33 4.32 2.66 5 3 C4.67 3.66 4.34 4.32 4 5 C2.68 5 1.36 5 0 5 C0 3.35 0 1.7 0 0 Z " fill="#5F1B21" transform="translate(0,37)"/>
<path d="M0 0 C3.96 0.99 3.96 0.99 8 2 C8 2.33 8 2.66 8 3 C4.7 3 1.4 3 -2 3 C-1.34 2.01 -0.68 1.02 0 0 Z " fill="#101218" transform="translate(11,57)"/>
<path d="M0 0 C0.556875 0.7115625 0.556875 0.7115625 1.125 1.4375 C3.62646962 3.52205802 5.81593418 3.64621491 9 4 C9 4.33 9 4.66 9 5 C6.03 5 3.06 5 0 5 C0 3.35 0 1.7 0 0 Z " fill="#101218" transform="translate(0,47)"/>
<path d="M0 0 C0.66 0.66 1.32 1.32 2 2 C1.625 5.125 1.625 5.125 1 8 C-0.32 6.35 -1.64 4.7 -3 3 C-2.01 2.01 -1.02 1.02 0 0 Z " fill="#BD9EA4" transform="translate(78,26)"/>
<path d="M0 0 C1.65 0 3.3 0 5 0 C5.66 1.32 6.32 2.64 7 4 C4 4 4 4 1.8125 2 C1.214375 1.34 0.61625 0.68 0 0 Z " fill="#CAB6BA" transform="translate(67,29)"/>
</svg>
